<?xml version="1.0" standalone="no"?>
<!DOCTYPE svg PUBLIC "-//W3C//DTD SVG 20010904//EN"
 "http://www.w3.org/TR/2001/REC-SVG-20010904/DTD/svg10.dtd">
<svg version="1.0" xmlns="http://www.w3.org/2000/svg"
 width="640.000000pt" height="608.000000pt" viewBox="0 0 640.000000 608.000000"
 preserveAspectRatio="xMidYMid meet">

<g transform="translate(0.000000,608.000000) scale(0.100000,-0.100000)"
fill="#000000" stroke="none">
<path d="M1125 4410 c21 -22 41 -40 44 -40 3 0 -13 18 -34 40 -21 22 -41 40
-44 40 -3 0 13 -18 34 -40z"/>
<path d="M2614 4286 c-60 -28 -90 -66 -115 -148 -21 -68 -24 -106 -8 -128 9
-12 10 -12 5 3 -3 10 -3 29 0 42 l6 24 25 -29 c20 -24 33 -30 64 -30 22 0 48
5 58 11 17 12 17 13 0 30 -24 24 -24 34 2 60 14 14 27 18 41 13 19 -6 20 -3
14 27 -3 18 -16 43 -28 56 l-21 23 24 2 c13 0 38 2 54 3 17 2 54 -5 83 -15 52
-17 52 -17 35 3 -71 79 -146 96 -239 53z"/>
<path d="M1725 4276 c-60 -19 -96 -40 -132 -78 -32 -33 -90 -145 -80 -154 3
-3 17 10 31 29 15 19 44 46 65 60 l39 26 6 -37 c9 -60 70 -112 129 -112 12 0
37 9 56 21 l34 21 -24 12 c-32 16 -38 61 -9 76 11 6 30 8 41 5 17 -6 19 -3 13
22 -4 15 -12 34 -18 42 -9 12 -4 13 34 7 54 -8 106 -47 133 -99 11 -21 21 -36
23 -34 2 2 -2 27 -10 56 -25 99 -102 151 -221 150 -38 0 -88 -6 -110 -13z"/>
<path d="M1952 4145 c0 -16 2 -22 5 -12 2 9 2 23 0 30 -3 6 -5 -1 -5 -18z"/>
<path d="M1601 4094 c0 -11 3 -14 6 -6 3 7 2 16 -1 19 -3 4 -6 -2 -5 -13z"/>
<path d="M1610 4053 c0 -4 5 -15 10 -23 8 -13 10 -13 10 2 0 9 -4 20 -10 23
-5 3 -10 3 -10 -2z"/>
<path d="M2512 3974 c10 -10 20 -16 22 -13 3 3 -5 11 -17 18 -21 13 -21 12 -5
-5z"/>
<path d="M1396 3955 c-3 -9 -6 -22 -5 -28 0 -7 5 -1 10 12 5 13 8 26 5 28 -2
2 -6 -3 -10 -12z"/>
<path d="M2540 3740 c-6 -11 -8 -20 -6 -20 3 0 10 9 16 20 6 11 8 20 6 20 -3
0 -10 -9 -16 -20z"/>
<path d="M2499 3683 l-24 -28 28 24 c25 23 32 31 24 31 -2 0 -14 -12 -28 -27z"/>
<path d="M2449 3643 c-13 -16 -12 -17 4 -4 9 7 17 15 17 17 0 8 -8 3 -21 -13z"/>
<path d="M2273 3544 c-18 -8 -33 -16 -33 -19 0 -7 60 16 66 26 6 11 7 11 -33
-7z"/>
<path d="M1686 3483 c22 -93 154 -384 173 -383 3 0 16 23 28 51 l22 50 -25 36
c-23 34 -64 149 -64 179 0 7 -22 25 -48 38 -27 13 -54 32 -61 40 -21 25 -32
19 -25 -11z"/>
<path d="M2355 3246 c-25 -49 -33 -76 -29 -95 11 -44 15 -44 42 1 14 23 42 66
62 93 54 75 54 72 4 71 l-45 -1 -34 -69z"/>
<path d="M1620 2778 c0 -4 19 -29 42 -54 29 -31 68 -57 127 -85 47 -22 97 -45
110 -52 14 -7 36 -32 50 -56 14 -24 36 -50 47 -58 20 -13 21 -12 16 14 -2 15
-15 39 -28 53 -12 14 -26 37 -29 53 -5 18 -16 29 -34 33 -54 13 -167 74 -207
112 -37 36 -94 61 -94 40z"/>
<path d="M2151 2694 c0 -11 3 -14 6 -6 3 7 2 16 -1 19 -3 4 -6 -2 -5 -13z"/>
<path d="M2136 2635 c-9 -26 -7 -32 5 -12 6 10 9 21 6 23 -2 3 -7 -2 -11 -11z"/>
<path d="M2162 2613 c-6 -3 -9 -9 -6 -15 4 -5 -3 -23 -15 -39 -23 -31 -27 -44
-11 -34 11 7 53 85 48 90 -2 1 -9 0 -16 -2z"/>
<path d="M2122 2480 c0 -19 2 -27 5 -17 2 9 2 25 0 35 -3 9 -5 1 -5 -18z"/>
<path d="M2132 2410 c0 -19 2 -27 5 -17 2 9 2 25 0 35 -3 9 -5 1 -5 -18z"/>
<path d="M2143 2335 c0 -22 2 -30 4 -17 2 12 2 30 0 40 -3 9 -5 -1 -4 -23z"/>
<path d="M2152 2265 c0 -16 3 -50 7 -75 6 -33 9 -37 9 -15 0 17 -3 50 -7 75
-6 33 -9 37 -9 15z"/>
<path d="M2172 2110 c0 -19 2 -27 5 -17 2 9 2 25 0 35 -3 9 -5 1 -5 -18z"/>
<path d="M2182 2040 c0 -19 2 -27 5 -17 2 9 2 25 0 35 -3 9 -5 1 -5 -18z"/>
<path d="M2193 1965 c0 -22 2 -30 4 -17 2 12 2 30 0 40 -3 9 -5 -1 -4 -23z"/>
<path d="M1335 1949 c-52 -53 -144 -118 -222 -158 -69 -34 -131 -40 -173 -16
-14 8 -37 14 -52 15 -22 0 -29 -6 -34 -27 -17 -68 29 -599 55 -642 6 -9 60 -3
216 23 114 19 209 36 210 38 14 16 55 114 66 158 17 70 17 260 -1 460 -17 203
-16 200 -65 149z"/>
<path d="M2203 1885 c0 -22 2 -30 4 -17 2 12 2 30 0 40 -3 9 -5 -1 -4 -23z"/>
<path d="M2212 1810 c0 -19 2 -27 5 -17 2 9 2 25 0 35 -3 9 -5 1 -5 -18z"/>
<path d="M2222 1740 c0 -19 2 -27 5 -17 2 9 2 25 0 35 -3 9 -5 1 -5 -18z"/>
<path d="M2231 1677 c0 -15 -10 -46 -22 -68 -11 -23 -19 -43 -16 -45 9 -9 48
95 44 117 -4 22 -4 22 -6 -4z"/>
<path d="M1990 1495 c34 -66 69 -127 77 -135 7 -8 -16 41 -53 110 -36 69 -71
130 -77 135 -5 6 18 -44 53 -110z"/>
<path d="M3023 1562 c-13 -2 -23 -9 -23 -16 0 -9 -22 -15 -72 -18 -63 -5 -141
-20 -333 -66 -33 -8 -17 -10 90 -12 156 -1 193 -12 217 -60 10 -19 19 -39 21
-43 1 -4 55 7 119 25 l117 33 -54 79 c-30 43 -56 79 -57 80 -2 1 -13 0 -25 -2z"/>
<path d="M2167 1515 c-24 -50 -20 -58 4 -12 11 22 19 41 17 43 -3 2 -12 -12
-21 -31z"/>
<path d="M2122 1415 c-30 -62 -27 -71 4 -12 14 27 24 51 22 53 -3 2 -14 -17
-26 -41z"/>
<path d="M4655 1369 c-59 -18 -472 -98 -595 -115 -114 -16 -212 -41 -632 -165
l-68 -20 0 -69 c0 -39 3 -70 8 -70 23 0 1108 344 1250 396 41 15 72 33 72 40
0 8 -1 14 -2 13 -2 0 -16 -5 -33 -10z"/>
<path d="M3230 1296 c0 -2 8 -10 18 -17 15 -13 16 -12 3 4 -13 16 -21 21 -21
13z"/>
<path d="M1943 1183 c9 -2 23 -2 30 0 6 3 -1 5 -18 5 -16 0 -22 -2 -12 -5z"/>
<path d="M2023 1173 c9 -2 23 -2 30 0 6 3 -1 5 -18 5 -16 0 -22 -2 -12 -5z"/>
<path d="M3245 1163 c21 -15 45 -17 45 -4 0 5 -14 11 -32 13 -28 5 -29 4 -13
-9z"/>
<path d="M2098 1163 c7 -3 16 -2 19 1 4 3 -2 6 -13 5 -11 0 -14 -3 -6 -6z"/>
<path d="M2268 1133 c7 -3 16 -2 19 1 4 3 -2 6 -13 5 -11 0 -14 -3 -6 -6z"/>
<path d="M2318 1123 c7 -3 16 -2 19 1 4 3 -2 6 -13 5 -11 0 -14 -3 -6 -6z"/>
<path d="M2368 1113 c7 -3 16 -2 19 1 4 3 -2 6 -13 5 -11 0 -14 -3 -6 -6z"/>
<path d="M2518 1083 c7 -3 16 -2 19 1 4 3 -2 6 -13 5 -11 0 -14 -3 -6 -6z"/>
<path d="M2568 1073 c7 -3 16 -2 19 1 4 3 -2 6 -13 5 -11 0 -14 -3 -6 -6z"/>
<path d="M3328 1063 c7 -3 16 -2 19 1 4 3 -2 6 -13 5 -11 0 -14 -3 -6 -6z"/>
<path d="M2718 1043 c7 -3 16 -2 19 1 4 3 -2 6 -13 5 -11 0 -14 -3 -6 -6z"/>
<path d="M2778 1033 c7 -3 16 -2 19 1 4 3 -2 6 -13 5 -11 0 -14 -3 -6 -6z"/>
<path d="M3236 1023 c-6 -14 -5 -15 5 -6 7 7 10 15 7 18 -3 3 -9 -2 -12 -12z"/>
<path d="M2838 1023 c7 -3 16 -2 19 1 4 3 -2 6 -13 5 -11 0 -14 -3 -6 -6z"/>
<path d="M2908 1013 c6 -2 18 -2 25 0 6 3 1 5 -13 5 -14 0 -19 -2 -12 -5z"/>
<path d="M2983 1003 c9 -2 25 -2 35 0 9 3 1 5 -18 5 -19 0 -27 -2 -17 -5z"/>
<path d="M3128 993 c17 -2 47 -2 65 0 17 2 3 4 -33 4 -36 0 -50 -2 -32 -4z"/>
</g>
</svg>
