<?xml version="1.0" encoding="UTF-8"?>
<svg version="1.1" xmlns="http://www.w3.org/2000/svg" width="500" height="500">
<path d="M0 0 C165 0 330 0 500 0 C500 165 500 330 500 500 C335 500 170 500 0 500 C0 335 0 170 0 0 Z " fill="#E3E1DC" transform="translate(0,0)"/>
<path d="M0 0 C3.00741592 3.05221185 3.37621004 5.3156392 3.36328125 9.5234375 C3.36392578 10.61672363 3.36457031 11.71000977 3.36523438 12.83642578 C3.34783203 14.00415527 3.33042969 15.17188477 3.3125 16.375 C3.29993164 18.17493408 3.29993164 18.17493408 3.28710938 20.01123047 C3.16177665 29.48763801 2.47094362 38.84199288 1.4375 48.2578125 C0.95248666 52.85975544 0.92554799 57.37466869 1 62 C1.6290625 61.50628906 2.258125 61.01257813 2.90625 60.50390625 C8.28331841 56.47920294 12.15036805 53.64570869 19 54 C22.10706157 55.94191348 22.80505665 57.22022661 23.6875 60.75 C22.65696841 65.6216039 19.7369409 68.79071227 16 72 C13.26171875 73.234375 13.26171875 73.234375 11 74 C11.69867188 74.90363281 12.39734375 75.80726563 13.1171875 76.73828125 C14.03650974 77.92964783 14.95577774 79.12105627 15.875 80.3125 C16.33519531 80.90740234 16.79539062 81.50230469 17.26953125 82.11523438 C23.49522935 90.19059641 23.49522935 90.19059641 23 97 C21 99 21 99 18.375 99.5625 C12.3784658 98.56307763 8.76056902 94.29023173 5.15625 89.6015625 C1 83.54363208 1 83.54363208 1 81 C0.34 81 -0.32 81 -1 81 C-1.02578125 81.68964844 -1.0515625 82.37929687 -1.078125 83.08984375 C-1.47294406 89.63127779 -2.42489987 95.39079118 -6 101 C-9.73255448 103.48836965 -11.58440935 103.54226552 -16 103 C-19.73986335 99.65380648 -20.40950102 96.84872001 -21 92 C-21.08014588 89.31571615 -21.1170847 86.65950816 -21.09765625 83.9765625 C-21.0962413 83.23038666 -21.09482635 82.48421082 -21.09336853 81.71542358 C-21.08780874 79.35190682 -21.07526389 76.98848773 -21.0625 74.625 C-21.0574798 73.01432429 -21.0529178 71.40364709 -21.04882812 69.79296875 C-21.03785251 65.86194201 -21.02061596 61.93098752 -21 58 C-21.93070312 58.0515625 -22.86140625 58.103125 -23.8203125 58.15625 C-27 58 -27 58 -29.875 55.5 C-30.57625 54.675 -31.2775 53.85 -32 53 C-38.54302841 57.80712291 -42.94696108 63.42192125 -46 71 C-46.51878914 75.08546445 -46.45653398 78.91293389 -46 83 C-40.31198039 81.23265105 -37.40319513 77.42289963 -33.5 73.1171875 C-31 71 -31 71 -28.1875 70.6953125 C-27.465625 70.79585938 -26.74375 70.89640625 -26 71 C-23.79159365 75.41681271 -24.57838566 81.19242534 -25 86 C-27.73089656 91.76522607 -31.78968128 94.85390881 -37.375 97.75 C-41.81962874 99.2826306 -45.3835279 100.00550374 -49.890625 98.2734375 C-53.88484646 96.209197 -56.09123663 94.04208714 -58 90 C-58.66 92.64 -59.32 95.28 -60 98 C-62.97 98.495 -62.97 98.495 -66 99 C-68.80178062 95.7665725 -69.74124175 92.89551231 -70.6875 88.75 C-71.06455078 87.13351563 -71.06455078 87.13351563 -71.44921875 85.484375 C-71.63097656 84.66453125 -71.81273437 83.8446875 -72 83 C-72.4125 83.39832031 -72.825 83.79664063 -73.25 84.20703125 C-78.61825924 89.13192979 -83.75581525 92.00236719 -91.125 92.4375 C-95.63296342 91.92853639 -97.58350865 90.95060617 -101 88 C-107.19410264 79.91325489 -107.69769663 72.96398001 -107 63 C-104.95365364 51.45732757 -99.26866736 43.01323676 -90 36 C-85.51095222 33.12700942 -82.31431208 32.35861751 -77 33 C-69.34195191 35.36432941 -65.4776845 40.47553265 -61.7421875 47.296875 C-60.78818656 49.17819153 -59.88828234 51.0867765 -59 53 C-58.67128906 52.41992188 -58.34257812 51.83984375 -58.00390625 51.2421875 C-53.78768398 44.31798508 -48.79349121 39.5978304 -41 37 C-28.62115796 35.99184331 -28.62115796 35.99184331 -24.3125 38.875 C-22.84777608 40.22096252 -21.40659718 41.59340282 -20 43 C-19.89977539 42.07775635 -19.79955078 41.1555127 -19.69628906 40.20532227 C-19.31285148 36.74286352 -18.91615251 33.28243819 -18.51074219 29.82250977 C-18.33884168 28.3325444 -18.17205424 26.84197896 -18.01074219 25.35083008 C-15.8597139 5.54676413 -15.8597139 5.54676413 -9.6875 -0.125 C-6.03702756 -1.31352591 -3.68168159 -1.02268933 0 0 Z " fill="#2D2D2D" transform="translate(352,161)"/>
<path d="M0 0 C3.59709617 3.57826321 4.43732264 8.30729365 5.6875 13.0625 C5.91244141 13.87783203 6.13738281 14.69316406 6.36914062 15.53320312 C7.25680245 18.81674246 8 21.57991281 8 25 C8.79921875 24.93039063 9.5984375 24.86078125 10.421875 24.7890625 C19.25238904 24.35375547 25.64153536 26.00110915 33 31 C35.33458635 34.50187953 35.67260727 35.88028047 35 40 C29.23338363 44.94281403 23.04181547 46.20518026 15.625 46.625 C14.37976563 46.69976562 13.13453125 46.77453125 11.8515625 46.8515625 C10.91054687 46.90054688 9.96953125 46.94953125 9 47 C9.01571045 47.86274536 9.01571045 47.86274536 9.03173828 48.74291992 C9.29795094 65.91026644 8.49386995 82.8978567 7 100 C6.92523438 100.8564209 6.85046875 101.7128418 6.7734375 102.59521484 C6.00065435 110.875801 5.15961473 119.84038527 -1 126 C-4.125 126.125 -4.125 126.125 -7 126 C-19.53003675 103.44593385 -16.61534259 71.17487104 -17 46 C-17.74040527 45.95029053 -18.48081055 45.90058105 -19.24365234 45.84936523 C-20.22285645 45.77403564 -21.20206055 45.69870605 -22.2109375 45.62109375 C-23.17821777 45.55075928 -24.14549805 45.4804248 -25.14208984 45.40795898 C-29.42395483 44.79673428 -32.32091475 43.24832988 -36 41 C-37.462958 38.074084 -37.44523109 36.24382653 -37 33 C-32.59044807 28.50101878 -28.70685255 26.95776034 -22.625 25.6875 C-21.88894531 25.51927734 -21.15289062 25.35105469 -20.39453125 25.17773438 C-18.59976793 24.76983362 -16.80030015 24.38272414 -15 24 C-14.76216797 22.40671875 -14.76216797 22.40671875 -14.51953125 20.78125 C-13.24432894 12.85175905 -12.12653757 6.44103438 -7 0 C-4.24438552 -1.37780724 -2.90228766 -0.92023755 0 0 Z " fill="#2D2D2D" transform="translate(160,145)"/>
<path d="M0 0 C4.12866465 1.30908879 6.35375636 4.16877641 8.5625 7.8125 C9.29057803 10.26148974 9.45721837 12.23310007 9.5625 14.8125 C10.243125 14.11125 10.92375 13.41 11.625 12.6875 C21.12233232 3.21722561 21.12233232 3.21722561 27.75 2.4375 C33.59212463 3.01213521 37.45871328 5.47192344 41.3671875 9.8203125 C45.6019629 15.31133707 47.31790838 19.72876481 46.5625 26.8125 C45.5 29.3125 45.5 29.3125 43.5625 30.8125 C40.19348389 31.38459708 37.81197882 31.60762288 34.84375 29.71875 C33.36681875 28.47349424 31.96064178 27.14561193 30.5625 25.8125 C27.67388291 24.36819145 25.76602299 24.43561494 22.5625 24.8125 C14.48826673 31.1143406 10.68474644 40.72012722 9.12353516 50.58666992 C8.67206465 54.3714427 8.2706622 58.15749956 7.921875 61.953125 C7.2168555 68.14354011 6.18680825 71.52707235 1.5625 75.8125 C-1 76.5 -1 76.5 -3.4375 75.8125 C-9.88133828 69.75919738 -12.17548828 60.87263507 -12.54516602 52.32226562 C-12.80177588 40.69482576 -12.80586674 29.23986954 -10.4375 17.8125 C-10.23125 16.79671875 -10.025 15.7809375 -9.8125 14.734375 C-8.35027387 8.51991394 -6.66129205 2.22043068 0 0 Z " fill="#2D2D2D" transform="translate(202.4375,184.1875)"/>
<path d="M0 0 C2.359375 0.28515625 2.359375 0.28515625 3.359375 1.28515625 C3.24344573 6.96569032 1.41421973 10.21962159 -1.875 14.78125 C-3.640625 16.28515625 -3.640625 16.28515625 -6.28125 16.5703125 C-8.640625 16.28515625 -8.640625 16.28515625 -9.640625 15.28515625 C-9.52469573 9.60462218 -7.69546973 6.35069091 -4.40625 1.7890625 C-2.640625 0.28515625 -2.640625 0.28515625 0 0 Z " fill="#D9D8D3" transform="translate(275.640625,211.71484375)"/>
</svg>
