<?xml version="1.0" standalone="no"?>
<!DOCTYPE svg PUBLIC "-//W3C//DTD SVG 20010904//EN"
 "http://www.w3.org/TR/2001/REC-SVG-20010904/DTD/svg10.dtd">
<svg version="1.0" xmlns="http://www.w3.org/2000/svg"
 width="500.000000pt" height="500.000000pt" viewBox="0 0 500.000000 500.000000"
 preserveAspectRatio="xMidYMid meet">

<g transform="translate(0.000000,500.000000) scale(0.100000,-0.100000)"
fill="#000000" stroke="none">
<path d="M1525 3534 c-26 -28 -49 -95 -60 -177 -7 -54 -10 -56 -122 -82 -74
-17 -113 -46 -113 -82 0 -55 28 -74 134 -93 33 -5 63 -15 66 -21 4 -6 10 -103
13 -217 12 -391 56 -593 126 -575 72 19 95 129 111 542 6 135 11 246 13 247 1
1 38 7 82 13 103 15 169 46 173 83 2 15 -2 37 -8 48 -17 32 -112 72 -186 78
-35 2 -68 10 -73 16 -5 6 -18 49 -30 95 -36 143 -74 181 -126 125z"/>
<path d="M3433 3384 c-50 -25 -72 -98 -94 -306 -7 -65 -15 -118 -19 -118 -4 0
-14 7 -21 17 -36 42 -132 55 -210 28 -61 -22 -105 -59 -138 -117 l-29 -50 -7
30 c-3 17 -24 59 -46 92 -68 106 -155 125 -257 57 -26 -18 -63 -53 -82 -80
l-35 -47 -6 49 c-11 85 -71 159 -149 182 -55 17 -117 -8 -170 -68 -22 -25 -41
-44 -43 -42 -2 2 -12 26 -22 53 -11 27 -33 58 -48 70 -26 19 -30 19 -55 6 -15
-9 -35 -32 -46 -53 -45 -92 -71 -395 -45 -519 24 -112 84 -189 127 -161 33 20
51 69 62 173 14 119 38 192 87 266 52 80 107 93 170 40 49 -40 70 -48 96 -35
12 7 26 17 30 23 5 6 6 2 2 -9 -56 -150 -39 -301 40 -363 60 -48 165 -33 243
34 l41 34 6 -47 c11 -83 35 -123 74 -123 20 0 41 32 41 63 l1 32 22 -26 c31
-38 87 -69 122 -69 62 1 152 56 181 112 14 27 19 123 8 152 -12 32 -49 17
-107 -44 -32 -33 -66 -60 -76 -60 -27 0 -44 53 -31 100 14 50 80 151 121 183
l34 26 23 -29 c17 -21 32 -30 53 -30 l29 0 0 -147 c0 -239 18 -303 85 -303 59
0 92 53 111 178 3 23 9 42 12 42 4 0 21 -23 37 -51 59 -100 145 -155 183 -117
30 30 7 88 -71 181 -39 46 -41 49 -22 59 11 6 39 30 63 53 57 57 58 105 4 134
-30 16 -74 2 -143 -46 l-52 -35 7 63 c5 56 24 347 28 434 3 62 -2 93 -19 113
-25 29 -62 35 -100 16z m-645 -535 c4 -38 -56 -123 -90 -127 -49 -6 -45 55 9
126 32 42 76 43 81 1z"/>
</g>
</svg>
